<svg xmlns="http://www.w3.org/2000/svg" viewBox="0 0 707.3 104.14"><defs><style>.cls-1{opacity:0.6;}.cls-2,.cls-5,.cls-7,.cls-8{fill:#ff7676;}.cls-2{stroke:#f2f2f2;}.cls-2,.cls-3,.cls-5,.cls-7{stroke-miterlimit:10;}.cls-3{fill:none;stroke:#fefaf4;}.cls-4{fill:#fefaf4;}.cls-5,.cls-7{stroke:#f7f5f0;}.cls-6{fill:#f7f5f0;}.cls-7{stroke-width:0.5px;}.cls-9{opacity:0.69;}</style></defs><g id="Layer_2" data-name="Layer 2"><g id="Layer_2-2" data-name="Layer 2"><g class="cls-1"><g id="book"><polyline class="cls-2" points="16.95 36.39 16.97 36.38 17.08 36.25 17.24 36.09"/><line class="cls-2" x1="21.38" y1="31.75" x2="21.27" y2="31.86"/><line class="cls-2" x1="17.26" y1="36.78" x2="6.07" y2="21.48"/><polyline class="cls-2" points="21.52 31.61 21.5 31.63 21.38 31.75 21.27 31.86"/><line class="cls-2" x1="17.24" y1="36.09" x2="17.08" y2="36.25"/><line class="cls-2" x1="21.83" y1="31.99" x2="9.39" y2="18"/><path class="cls-2" d="M38.57,28.31,22.11,13A31.45,31.45,0,0,1,7.39,15.52l0,0L5.65,17.3l0,0L4.07,19,4,19A44.55,44.55,0,0,1,.57,35.54l12,20a26.6,26.6,0,0,0,2.3-4.46l-.26,1.31,1.6,2.17a29.93,29.93,0,0,0,1.68-5l-.05.92,2.33,2.84A32.23,32.23,0,0,0,21,47.59l.08.59s-.51-.58,1.84,2.33C24.35,39,19.17,34.07,19.17,34.07l.08-.09s3.88,6.29,14.08,5.61c-2.35-2.92-1.9-2.28-1.9-2.28l-.53-.15A22.26,22.26,0,0,0,36,36.75l-2.42-2.83-.89,0a21.75,21.75,0,0,0,4.7-1.53l-1.73-2.14-.73.12A21,21,0,0,0,38.57,28.31Zm-20,6.35,0,0h0Zm1.3-1.32h0Z"/><path class="cls-2" d="M5.63,17.32,4,19l0,0Z"/><path class="cls-2" d="M19.86,33.34h0Z"/><path class="cls-2" d="M7.32,15.51,5.65,17.3l1.69-1.74Z"/><path class="cls-2" d="M18.56,34.66v0h0Z"/></g><g id="book-2" data-name="book"><line class="cls-3" x1="21.42" y1="31.79" x2="16.98" y2="36.43"/><polygon class="cls-4" points="16.89 37.12 6.1 21.52 17.7 36.53 16.89 37.12"/><line class="cls-3" x1="17.12" y1="36.29" x2="21.55" y2="31.65"/><polygon class="cls-4" points="21.49 32.37 9.43 18.04 22.24 31.7 21.49 32.37"/><path class="cls-3" d="M21.42,32a23.84,23.84,0,0,0,17.19-3.64L22.15,13A31.51,31.51,0,0,1,7.42,15.56L4.07,19"/><path class="cls-3" d="M20.8,32.64a19.85,19.85,0,0,0,16.65-.25l-1.72-2.14"/><path class="cls-3" d="M19.87,33.38a20.13,20.13,0,0,0,16.2,3.42L33.64,34"/><path class="cls-3" d="M19.29,34s3.88,6.29,14.07,5.61c-2.35-2.92-1.89-2.28-1.89-2.28"/><path class="cls-3" d="M17.34,36.27s.88,10.61-4.71,19.3l-12-20a44.55,44.55,0,0,0,3.46-16.5l3.29-3.53"/><path class="cls-3" d="M18,35.61a29.47,29.47,0,0,1-1.7,19l-1.6-2.16"/><path class="cls-3" d="M18.6,34.7s4.15,7.59,1.63,18.69L17.9,50.55"/><path class="cls-3" d="M19.2,34.11S24.38,39,22.93,50.56c-2.35-2.92-1.84-2.34-1.84-2.34"/></g></g><g class="cls-1"><path class="cls-5" d="M70.94,88.34c19.46,3.89,18,14.46,18,14.46l4-25.36s-6.87-10.07-26.32-14Z"/><path class="cls-5" d="M90.85,78.78S89.8,70.36,99,50.1l10.66,25.66L97.58,98.24Z"/><path class="cls-5" d="M89.2,74.46s1.49-8.21,16.52-24.81l5.34,26.07L93.93,97.85Z"/><path class="cls-5" d="M65.86,94C85.26,92,95,99.7,95,99.7L90.38,74s-9.7-7.72-29.1-5.7Z"/><path class="cls-5" d="M62.8,97.41c19.9-2.07,32.45,3.31,32.45,3.31l-4.7-26.41S78,68.93,58.11,71Z"/><path class="cls-5" d="M109.93,49.46C100.65,58.36,91.76,70.28,89.05,74c-1.25-.15-14.8-1.74-34.44.22l5,27.19c19.79-2.91,34.54-.2,34.54-.2l.14-.1a191.18,191.18,0,0,1,20.54-24Z"/><polygon class="cls-6" points="89.55 73.78 92.76 95.98 88.57 73.94 89.55 73.78"/><polygon class="cls-6" points="85.89 73.86 89.82 95.76 84.91 74.06 85.89 73.86"/></g><g class="cls-1"><polyline class="cls-7" points="230.83 82.92 225.48 63.97 256.26 53.68 264.43 70.2"/><path class="cls-7" d="M227.22,81.51,227.78,57l29.91-4.24,1.79,20.08S241.94,78.73,227.22,81.51Z"/><path class="cls-7" d="M259.81,75.6s-.8,7.26,11.8,20.33l1.54-27.2-13.39-16.6Z"/><path class="cls-7" d="M260.59,73.09s0,7.32,14.64,20.07l-1.33-27.4L258,49.49Z"/><polygon class="cls-5" points="257.52 49.46 257.53 49.55 257.61 49.53 257.52 49.46"/><polygon class="cls-7" points="225.35 54.37 225.87 78.2 260.47 73.09 280.41 89.32 276.32 65.03 258.05 49.9 257.61 49.53 257.53 49.55 225.35 54.37"/><polygon class="cls-6" points="261.46 74.14 260.32 59.51 261.95 74.09 261.46 74.14"/><polygon class="cls-6" points="258.25 73.56 257.11 58.93 258.74 73.52 258.25 73.56"/><polygon class="cls-5" points="261.11 73 258.95 72.97 259.84 71.71 261.11 73"/></g><g class="cls-1"><g id="book-3" data-name="book"><polyline class="cls-2" points="485.32 84.25 485.31 84.22 485.26 84 485.19 83.71"/><line class="cls-2" x1="483.37" y1="75.96" x2="483.42" y2="76.17"/><line class="cls-2" x1="485.9" y1="84.12" x2="463.49" y2="88.15"/><polyline class="cls-2" points="483.31 75.71 483.32 75.75 483.37 75.96 483.42 76.17"/><line class="cls-2" x1="485.19" y1="83.71" x2="485.26" y2="84.01"/><line class="cls-2" x1="483.9" y1="75.58" x2="462.03" y2="81.93"/><path class="cls-2" d="M490.57,52.93,464.84,63.34a50.49,50.49,0,0,1-6.56,19.47s0,0,0,.08c.3,1.3.53,2.33.71,3.14v0c.19.78.42,1.74.72,2.94a.29.29,0,0,0,0,.09,50.56,50.56,0,0,1,14.53,14.52L502,101.51a34,34,0,0,0-3.07-5.57L500,97.07l3.19-.59a35.86,35.86,0,0,0-4-5.14l.91.63,4.31-1.06a35.62,35.62,0,0,0-5.33-4.55l.64.28s-.9.25,3.51-.78c-10.75-9-19-5.75-19-5.75l0-.17s8.77-.77,14.41-13.58c-4.41,1-3.49.87-3.49.87l-.48.56a35,35,0,0,0,2.78-6.49l-4.37,1.17-.59,1.05a34.68,34.68,0,0,0,1.37-6.65l-3.23.75-.34,1A32.71,32.71,0,0,0,490.57,52.93Zm-6,28.28h0v0ZM484,78.8v0h0Z"/><path class="cls-2" d="M459,86.07l.66,3,.06,0C459.43,87.81,459.2,86.85,459,86.07Z"/><path class="cls-2" d="M484,78.8l0,0h0Z"/><path class="cls-2" d="M458.23,82.89,459,86c-.18-.81-.41-1.84-.71-3.14Z"/><path class="cls-2" d="M484.57,81.21l0,0v0Z"/></g><g id="book-4" data-name="book"><line class="cls-3" x1="483.43" y1="75.95" x2="485.38" y2="84.24"/><polygon class="cls-4" points="486.05 84.59 463.55 88.13 485.88 83.61 486.05 84.59"/><line class="cls-3" x1="485.32" y1="83.99" x2="483.38" y2="75.7"/><polygon class="cls-4" points="484.1 76.04 462.09 81.91 483.82 75.08 484.1 76.04"/><path class="cls-3" d="M483.64,76.07a38,38,0,0,0,7-23.15l-25.72,10.4a50.57,50.57,0,0,1-6.57,19.47l1.4,6.24"/><path class="cls-3" d="M483.91,77.23s8.61-6.56,10.09-20.38l-3.23.76"/><path class="cls-3" d="M484.08,78.83s9.32-4.29,13.51-17.54l-4.37,1.17"/><path class="cls-3" d="M484.37,79.93s8.77-.78,14.41-13.59c-4.41,1-3.48.88-3.48.88"/><path class="cls-3" d="M485.43,83.7S496.7,89.27,502,101.49l-27.67,2.11a50.52,50.52,0,0,0-14.54-14.52l-1.52-6.2"/><path class="cls-3" d="M485.16,82.54s10.66,2.21,18.13,13.93l-3.19.59"/><path class="cls-3" d="M484.63,81.19s10.26-.3,19.9,9.71l-4.31,1"/><path class="cls-3" d="M484.41,80.09s8.19-3.22,18.94,5.75c-4.41,1-3.51.78-3.51.78"/></g></g><g class="cls-1"><g id="book-5" data-name="book"><polyline class="cls-2" points="377.5 68.14 377.52 68.12 377.71 67.99 377.96 67.83"/><line class="cls-2" x1="384.57" y1="63.39" x2="384.39" y2="63.51"/><line class="cls-2" x1="377.16" y1="67.64" x2="390.82" y2="85.86"/><polyline class="cls-2" points="384.78 63.25 384.76 63.27 384.57 63.39 384.39 63.51"/><line class="cls-2" x1="377.96" y1="67.83" x2="377.71" y2="67.99"/><line class="cls-2" x1="384.45" y1="62.75" x2="396.12" y2="82.31"/><path class="cls-2" d="M391.3,45.91l.4-.93-1.85-2.76a34.94,34.94,0,0,0-3.53,5.8l.29-1.17L384.2,43a35.3,35.3,0,0,0-2.39,6.64l0-.74s.57.75-1.95-3c-4.6,13.22,1.29,19.76,1.29,19.76l-.14.09s-3.81-7.94-17.78-8.7c2.52,3.76,2,3,2,3l.65.24a35.59,35.59,0,0,0-7-.31l2.44,3.72,1.09.16a35,35,0,0,0-6.41,1l1.93,2.6,1.62,0a33.77,33.77,0,0,0-6,2l18.8,20.4a50.48,50.48,0,0,1,20.54-.71l.07,0,2.53-1.66,0,0,2.65-1.81.07,0a50.54,50.54,0,0,1,8.47-18.73L395,41.64A32.94,32.94,0,0,0,391.3,45.91Zm-11.23,20.5,0,0,0,0Zm2.07-1.35v0h0Z"/><path class="cls-2" d="M395.51,87.4,393,89.12l0-.06Z"/><path class="cls-2" d="M382.15,65v0Z"/><path class="cls-2" d="M398.25,85.6l-2.7,1.77,2.65-1.81Z"/><path class="cls-2" d="M380.12,66.42h-.05l0,0Z"/></g><g id="book-6" data-name="book"><line class="cls-3" x1="384.54" y1="63.34" x2="377.46" y2="68.08"/><polygon class="cls-4" points="377.53 67.28 390.78 85.81 376.73 67.88 377.53 67.28"/><line class="cls-3" x1="377.68" y1="67.94" x2="384.75" y2="63.2"/><polygon class="cls-4" points="384.84 62.44 396.09 82.25 383.98 62.95 384.84 62.44"/><path class="cls-3" d="M384.3,63.29A38,38,0,0,1,395,41.58L406.7,66.73a50.62,50.62,0,0,0-8.47,18.72L393,89.06"/><path class="cls-3" d="M383.31,64s-1.82-10.67,6.51-21.8l1.85,2.76"/><path class="cls-3" d="M382.1,65s-3.89-9.49,2.07-22.05l2.4,3.84"/><path class="cls-3" d="M381.14,65.62s-5.89-6.55-1.29-19.77c2.52,3.76,2,3,2,3"/><path class="cls-3" d="M377.79,67.66s-12-3.62-24.26,1.71l18.81,20.4a50.54,50.54,0,0,1,20.53-.72l5.34-3.5"/><path class="cls-3" d="M378.78,67s-9.31-5.65-22.76-2.16L358,67.42"/><path class="cls-3" d="M380.08,66.36s-7.3-7.21-21.17-6.46l2.43,3.71"/><path class="cls-3" d="M381,65.71s-3.8-7.94-17.78-8.7c2.52,3.76,2,3,2,3"/></g></g><g class="cls-1"><g id="book-7" data-name="book"><polyline class="cls-2" points="415.74 18.16 415.76 18.17 415.91 18.25 416.11 18.35"/><line class="cls-2" x1="421.48" y1="21.04" x2="421.33" y2="20.97"/><line class="cls-2" x1="415.46" y1="18.57" x2="426.81" y2="3.39"/><polyline class="cls-2" points="421.65 21.13 421.63 21.11 421.48 21.04 421.33 20.96"/><line class="cls-2" x1="416.11" y1="18.35" x2="415.91" y2="18.25"/><line class="cls-2" x1="421.37" y1="21.54" x2="431.11" y2="5.55"/><path class="cls-2" d="M429.81,36.47l9.84-20.24A31.41,31.41,0,0,1,432.9,2.91l-.06,0-2.15-1.1,0,0-2.05-1-.06,0a44.67,44.67,0,0,1-16.8,1.53L396.17,19.6a26.54,26.54,0,0,0,4.93.89l-1.33.14-1.6,2.16a29.08,29.08,0,0,0,5.23.15l-.89.23-2,3.06a31.74,31.74,0,0,0,5.73-.94l-.54.25s.41-.66-1.69,2.45c11.44-2,14.63-8.39,14.63-8.39l.11.06s-4.88,5.55-1.24,15.1c2.1-3.11,1.63-2.48,1.63-2.48l0-.56A22.2,22.2,0,0,0,421,36.51l2-3.15-.22-.85a21.74,21.74,0,0,0,2.83,4l1.54-2.28-.32-.66A21,21,0,0,0,429.81,36.47ZM417.87,19.2l0,0h0Zm1.64.85h0v0Z"/><path class="cls-2" d="M430.66,1.75l-2-1V.75Z"/><path class="cls-2" d="M419.51,20.05v0Z"/><path class="cls-2" d="M432.88,2.84l-2.19-1.07,2.15,1.1Z"/><path class="cls-2" d="M417.87,19.2h0Z"/></g><g id="book-8" data-name="book"><line class="cls-3" x1="421.45" y1="21.08" x2="415.71" y2="18.2"/><polygon class="cls-4" points="415.03 18.32 426.78 3.43 415.83 18.92 415.03 18.32"/><line class="cls-3" x1="415.88" y1="18.29" x2="421.62" y2="21.17"/><polygon class="cls-4" points="420.92 21.32 431.08 5.59 421.77 21.84 420.92 21.32"/><path class="cls-3" d="M421.26,21.14a23.84,23.84,0,0,0,8.52,15.37l9.84-20.23A31.41,31.41,0,0,1,432.87,3L428.59.75"/><path class="cls-3" d="M420.45,20.74a19.89,19.89,0,0,0,5.12,15.85l1.54-2.28"/><path class="cls-3" d="M419.48,20.07A20.12,20.12,0,0,0,421,36.56l2-3.15"/><path class="cls-3" d="M418.7,19.7s-4.89,5.55-1.25,15.1c2.1-3.1,1.63-2.48,1.63-2.48"/><path class="cls-3" d="M416,18.49s-9.89,4-19.84,1.16L411.72,2.29A44.53,44.53,0,0,0,428.52.77l4.33,2.11"/><path class="cls-3" d="M416.78,18.9a29.45,29.45,0,0,1-18.64,3.94l1.6-2.17"/><path class="cls-3" d="M417.84,19.24s-6,6.2-17.39,7l2-3.06"/><path class="cls-3" d="M418.58,19.64S415.39,26,404,28c2.1-3.1,1.69-2.44,1.69-2.44"/></g></g><g class="cls-1"><polyline class="cls-5" points="602 57.48 618.71 65.55 609.57 91.75 593.1 86.98"/><path class="cls-5" d="M605,56l17.59,15.3-13.08,22-15.6-11.06S599,67.22,605,56Z"/><path class="cls-5" d="M591.66,80.7s-4.86-4.94-21.2-4.73l19,17.56L608.81,95Z"/><path class="cls-5" d="M593.07,82.74s-5.31-4.5-22.55-2.74l20.7,15.82,20.47-.4Z"/><polygon class="cls-8" points="611.97 95.13 611.9 95.08 611.86 95.14 611.97 95.13"/><polygon class="cls-5" points="625.78 71.31 608.12 57.13 593.13 82.65 570.52 85.69 590.45 97.83 611.36 95.21 611.86 95.14 611.9 95.08 625.78 71.31"/><polygon class="cls-6" points="592.01 82.42 603.12 90.83 591.43 83.24 592.01 82.42"/><polygon class="cls-6" points="594.17 80.69 605.28 89.1 593.59 81.51 594.17 80.69"/><polygon class="cls-8" points="592.86 83.12 594.04 81.74 594.49 83.09 592.86 83.12"/></g><g class="cls-1"><g id="book-9" data-name="book"><polyline class="cls-2" points="635.65 28.57 635.62 28.58 635.46 28.61 635.24 28.65"/><line class="cls-2" x1="629.33" y1="29.72" x2="629.49" y2="29.69"/><line class="cls-2" x1="635.62" y1="28.08" x2="635.66" y2="47.03"/><polyline class="cls-2" points="629.14 29.75 629.16 29.75 629.33 29.72 629.49 29.69"/><line class="cls-2" x1="635.24" y1="28.65" x2="635.46" y2="28.61"/><line class="cls-2" x1="629.11" y1="29.25" x2="630.92" y2="47.89"/><path class="cls-2" d="M613.41,22.37l4.27,22.09a31.45,31.45,0,0,1,13.39,6.61h.07l2.38-.4h0l2.25-.43h.07a44.52,44.52,0,0,1,12.51-11.3l2.06-23.23A26.42,26.42,0,0,0,646,17.93l1-.91V14.33a29.18,29.18,0,0,0-4.28,3l.58-.72L643,13a32.49,32.49,0,0,0-4,4.19l.28-.52s.07.77-.11-3c-8,8.45-6.67,15.49-6.67,15.49l-.13,0s.58-7.37-8.06-12.83c.18,3.75.18,3,.18,3l.35.44a22.49,22.49,0,0,0-4.39-2.7l.29,3.72.69.55a21.87,21.87,0,0,0-4.69-1.53l.13,2.75.66.33A21.41,21.41,0,0,0,613.41,22.37ZM633.32,29v0h0Zm-1.83.31h0v0Z"/><path class="cls-2" d="M633.55,50.65l2.27-.38,0-.05Z"/><path class="cls-2" d="M631.49,29.33l0,0v0Z"/><path class="cls-2" d="M631.13,51.12l2.39-.46-2.38.4Z"/><path class="cls-2" d="M633.32,29l0,0h0Z"/></g><g id="book-10" data-name="book"><line class="cls-3" x1="629.32" y1="29.66" x2="635.65" y2="28.52"/><polygon class="cls-4" points="636.12 28.02 635.65 46.98 635.12 28.02 636.12 28.02"/><line class="cls-3" x1="635.46" y1="28.56" x2="629.14" y2="29.7"/><polygon class="cls-4" points="629.61 29.15 630.91 47.84 628.61 29.25 629.61 29.15"/><path class="cls-3" d="M629.44,29.5a23.82,23.82,0,0,0-16-7.18l4.26,22.09A31.45,31.45,0,0,1,631.07,51l4.74-.8"/><path class="cls-3" d="M630.33,29.34a19.9,19.9,0,0,0-13.61-9.61l.14,2.74"/><path class="cls-3" d="M631.52,29.29A20.11,20.11,0,0,0,620.44,17l.29,3.72"/><path class="cls-3" d="M632.36,29.12s.57-7.37-8.07-12.83c.19,3.74.19,3,.19,3"/><path class="cls-3" d="M635.26,28.45s5.54-9.09,15.18-12.82l-2.06,23.23a44.62,44.62,0,0,0-12.52,11.3l-4.73.91"/><path class="cls-3" d="M634.37,28.61a29.48,29.48,0,0,1,12.56-14.34V17"/><path class="cls-3" d="M633.32,29s1.12-8.58,9.69-16.06l.21,3.66"/><path class="cls-3" d="M632.48,29.09s-1.28-7,6.68-15.48c.18,3.74.11,3,.11,3"/></g></g><g class="cls-1"><polyline class="cls-5" points="690.07 96.26 677.85 94.75 678.03 76.34 689.39 75.84"/><path class="cls-5" d="M688.51,97.83,674.21,92l3.55-16.57L689.91,79A146.88,146.88,0,0,1,688.51,97.83Z"/><path class="cls-5" d="M691.63,79.48s4.1,2.07,14.32-1.54l-15.67-7-12.45,3.21Z"/><path class="cls-5" d="M690.31,78.5s4.29,1.69,14.75-3.08l-16.37-5.53-12.77,4.6Z"/><polygon class="cls-8" points="675.81 74.73 675.86 74.74 675.87 74.7 675.81 74.73"/><polygon class="cls-5" points="672.19 92.63 686.3 97.78 690.29 78.56 703.85 71.85 688.75 68.46 676.17 74.55 675.87 74.7 675.86 74.74 672.19 92.63"/><polygon class="cls-6" points="691 78.63 682.28 75.55 691.28 77.67 691 78.63"/><polygon class="cls-6" points="690.01 80.17 681.29 77.09 690.29 79.22 690.01 80.17"/><polygon class="cls-8" points="690.36 78.21 689.91 79.33 689.35 78.58 690.36 78.21"/></g><g class="cls-9"><g id="book-11" data-name="book"><polyline class="cls-2" points="191.18 23.92 191.17 23.89 191.13 23.73 191.09 23.51"/><line class="cls-2" x1="189.77" y1="17.65" x2="189.81" y2="17.81"/><line class="cls-2" x1="191.67" y1="23.87" x2="172.74" y2="24.7"/><polyline class="cls-2" points="189.73 17.46 189.74 17.49 189.77 17.65 189.81 17.81"/><line class="cls-2" x1="191.08" y1="23.51" x2="191.13" y2="23.73"/><line class="cls-2" x1="190.23" y1="17.42" x2="171.68" y2="20"/><path class="cls-2" d="M196.45,1.44l-21.9,5.19a31.5,31.5,0,0,1-6,13.66.13.13,0,0,0,0,.06c.21,1,.37,1.76.5,2.37v0c.14.59.31,1.32.52,2.23,0,0,0,0,0,.06a44.42,44.42,0,0,1,11.81,12l23.3,1.09a27.13,27.13,0,0,0-2.43-4.38l.94.94,2.69-.13a30.42,30.42,0,0,0-3.19-4.15l.74.55,3.65-.37a31.87,31.87,0,0,0-4.35-3.84l.53.26s-.76.1,3-.24c-8.78-7.6-15.76-6-15.76-6l0-.12s7.38.27,12.47-8.6c-3.73.34-2.95.32-2.95.32l-.41.36a22.72,22.72,0,0,0,2.51-4.5l-3.71.45-.52.71a21.74,21.74,0,0,0,1.33-4.75l-2.74.25-.3.67A21.16,21.16,0,0,0,196.45,1.44Zm-5.82,20.17h0v0Zm-.38-1.81v0h0Z"/><path class="cls-2" d="M169,22.75l.48,2.24h0C169.34,24.07,169.17,23.34,169,22.75Z"/><path class="cls-2" d="M190.25,19.8l0,0h0Z"/><path class="cls-2" d="M168.46,20.34l.56,2.38c-.13-.61-.29-1.39-.5-2.37Z"/><path class="cls-2" d="M190.63,21.61l0,0v0Z"/></g><g id="book-12" data-name="book"><line class="cls-3" x1="189.82" y1="17.65" x2="191.23" y2="23.91"/><polygon class="cls-4" points="191.75 24.37 172.79 24.69 191.7 23.37 191.75 24.37"/><line class="cls-3" x1="191.19" y1="23.72" x2="189.78" y2="17.46"/><polygon class="cls-4" points="190.35 17.91 171.74 19.99 190.21 16.92 190.35 17.91"/><path class="cls-3" d="M190,17.76A23.83,23.83,0,0,0,196.5,1.44L174.61,6.62a31.41,31.41,0,0,1-6.05,13.66l1,4.71"/><path class="cls-3" d="M190.19,18.64a19.88,19.88,0,0,0,9-14l-2.73.25"/><path class="cls-3" d="M190.29,19.82A20.12,20.12,0,0,0,202.12,8.24l-3.71.44"/><path class="cls-3" d="M190.5,20.65s7.39.27,12.48-8.59c-3.73.34-2.95.31-2.95.31"/><path class="cls-3" d="M191.29,23.52s9.31,5.16,13.44,14.63l-23.3-1.08a44.52,44.52,0,0,0-11.81-12l-1.1-4.69"/><path class="cls-3" d="M191.09,22.65a29.45,29.45,0,0,1,14.85,11.94l-2.69.13"/><path class="cls-3" d="M190.69,21.61s8.62.75,16.45,9l-3.66.37"/><path class="cls-3" d="M190.53,20.78s7-1.58,15.75,6c-3.73.34-3,.24-3,.24"/></g></g></g></g></svg>