<svg xmlns="http://www.w3.org/2000/svg" viewBox="0 0 211.52 184.51"><defs><style>.cls-1{fill:none;stroke:#4d4d4d;stroke-miterlimit:10;stroke-width:3px;}.cls-2{fill:#4d4d4d;}</style></defs><g id="Layer_2" data-name="Layer 2"><g id="Layer_3" data-name="Layer 3"><g id="book"><line class="cls-1" x1="123.12" y1="74.4" x2="87.63" y2="74.4"/><polygon class="cls-2" points="89.13 71.81 92.6 166.67 86.14 71.97 89.13 71.81"/><line class="cls-1" x1="88.7" y1="74.4" x2="124.19" y2="74.4"/><polygon class="cls-2" points="125.69 71.97 119.22 166.67 122.69 71.81 125.69 71.97"/><path class="cls-1" d="M122.41,73.69s32.65-40.46,87.31-50.39L192,137.57s-36.91,11.55-72.75,45.17L92.6,183"/><path class="cls-1" d="M117.45,73.69s18.45-41.17,73.1-60.33V27.2"/><path class="cls-1" d="M110.83,74.53s8.54-41.9,58.3-71.52l-.58,18.87"/><path class="cls-1" d="M106.09,74.4S100.88,38.08,147.49,3c0,18.87-.23,15-.23,15"/><path class="cls-1" d="M89.76,73.69S56.46,33.24,1.81,23.3L19.55,137.58s36.91,11.55,72.75,45.17l26.62.26"/><path class="cls-1" d="M94.73,73.69S75.62,32.53,21,13.37l.65,13.47"/><path class="cls-1" d="M100.69,74.54S92.16,32.64,42.39,3l-.18,18.5"/><path class="cls-1" d="M105.38,74.4S110.64,38.09,64,3c0,18.86.18,15,.18,15"/></g></g></g></svg>