<svg xmlns="http://www.w3.org/2000/svg" viewBox="0 0 208.2 185.65"><defs><style>.cls-1{opacity:0.6;}.cls-2,.cls-5,.cls-8{fill:#ff7676;}.cls-2{stroke:#f2f2f2;}.cls-2,.cls-3,.cls-5{stroke-miterlimit:10;}.cls-3{fill:none;stroke:#fefaf4;}.cls-4{fill:#fefaf4;}.cls-5{stroke:#f7f5f0;}.cls-6{fill:#f7f5f0;}.cls-7{opacity:0.69;}</style></defs><g id="Layer_2" data-name="Layer 2"><g id="Layer_2-2" data-name="Layer 2"><g class="cls-1"><g id="book"><polyline class="cls-2" points="16.95 35.59 16.97 35.57 17.08 35.45 17.24 35.28"/><line class="cls-2" x1="21.38" y1="30.94" x2="21.27" y2="31.06"/><line class="cls-2" x1="17.26" y1="35.97" x2="6.07" y2="20.68"/><polyline class="cls-2" points="21.52 30.8 21.5 30.82 21.38 30.94 21.27 31.06"/><line class="cls-2" x1="17.24" y1="35.28" x2="17.08" y2="35.45"/><line class="cls-2" x1="21.83" y1="31.19" x2="9.39" y2="17.19"/><path class="cls-2" d="M38.57,27.5,22.11,12.16A31.45,31.45,0,0,1,7.39,14.71l0,0L5.65,16.49l0,0L4.07,18.18l0,.05A44.65,44.65,0,0,1,.57,34.74l12,20a26.51,26.51,0,0,0,2.3-4.45l-.26,1.31,1.6,2.17a30,30,0,0,0,1.68-5l-.05.93,2.33,2.83A32.13,32.13,0,0,0,21,46.79l.08.58s-.51-.58,1.84,2.34c1.45-11.52-3.73-16.45-3.73-16.45l.08-.09s3.88,6.29,14.08,5.61c-2.35-2.91-1.9-2.28-1.9-2.28l-.53-.14A22.26,22.26,0,0,0,36,36l-2.42-2.84-.89,0a21.69,21.69,0,0,0,4.7-1.52l-1.73-2.14-.73.11A21,21,0,0,0,38.57,27.5Zm-20,6.36,0,0,0,0Zm1.3-1.33v0l0,0Z"/><path class="cls-2" d="M5.63,16.51,4,18.15l0,0Z"/><path class="cls-2" d="M19.86,32.53h0l0,0Z"/><path class="cls-2" d="M7.32,14.71,5.65,16.49l1.69-1.73Z"/><path class="cls-2" d="M18.56,33.86v0l0,0Z"/></g><g id="book-2" data-name="book"><line class="cls-3" x1="21.42" y1="30.98" x2="16.98" y2="35.63"/><polygon class="cls-4" points="16.89 36.31 6.1 20.72 17.7 35.72 16.89 36.31"/><line class="cls-3" x1="17.12" y1="35.49" x2="21.55" y2="30.84"/><polygon class="cls-4" points="21.49 31.56 9.43 17.23 22.24 30.9 21.49 31.56"/><path class="cls-3" d="M21.42,31.18a23.84,23.84,0,0,0,17.19-3.64L22.15,12.21A31.59,31.59,0,0,1,7.42,14.75L4.07,18.2"/><path class="cls-3" d="M20.8,31.83a19.87,19.87,0,0,0,16.65-.24l-1.72-2.14"/><path class="cls-3" d="M19.87,32.57A20.08,20.08,0,0,0,36.07,36l-2.43-2.84"/><path class="cls-3" d="M19.29,33.21s3.88,6.3,14.07,5.61c-2.35-2.91-1.89-2.28-1.89-2.28"/><path class="cls-3" d="M17.34,35.46s.88,10.61-4.71,19.3l-12-20A44.65,44.65,0,0,0,4.06,18.27l3.29-3.52"/><path class="cls-3" d="M18,34.81a29.47,29.47,0,0,1-1.7,19l-1.6-2.17"/><path class="cls-3" d="M18.6,33.9s4.15,7.59,1.63,18.68L17.9,49.75"/><path class="cls-3" d="M19.2,33.31s5.18,4.92,3.73,16.44c-2.35-2.92-1.84-2.33-1.84-2.33"/></g></g><g class="cls-1"><path class="cls-5" d="M70.94,87.53c19.46,3.89,18,14.46,18,14.46l4-25.35s-6.87-10.08-26.32-14Z"/><path class="cls-5" d="M90.85,78s-1-8.43,8.15-28.69L109.66,75,97.58,97.44Z"/><path class="cls-5" d="M89.2,73.66s1.49-8.22,16.52-24.82l5.34,26.07L93.93,97Z"/><path class="cls-5" d="M65.86,93.19c19.4-2,29.1,5.7,29.1,5.7L90.38,73.14s-9.7-7.71-29.1-5.7Z"/><path class="cls-5" d="M62.8,96.61c19.9-2.07,32.45,3.31,32.45,3.31l-4.7-26.41S78,68.13,58.11,70.19Z"/><path class="cls-5" d="M109.93,48.65c-9.28,8.91-18.17,20.82-20.88,24.56-1.25-.16-14.8-1.74-34.44.21l5,27.19c19.79-2.91,34.54-.19,34.54-.19l.14-.1a190.88,190.88,0,0,1,20.54-24Z"/><polygon class="cls-6" points="89.55 72.97 92.76 95.17 88.57 73.14 89.55 72.97"/><polygon class="cls-6" points="85.89 73.06 89.82 94.95 84.91 73.26 85.89 73.06"/></g><g class="cls-7"><g id="book-3" data-name="book"><polyline class="cls-2" points="191.18 23.11 191.17 23.09 191.13 22.92 191.09 22.7"/><line class="cls-2" x1="189.77" y1="16.84" x2="189.81" y2="17"/><line class="cls-2" x1="191.67" y1="23.07" x2="172.74" y2="23.89"/><polyline class="cls-2" points="189.73 16.66 189.74 16.68 189.77 16.84 189.81 17"/><line class="cls-2" x1="191.08" y1="22.7" x2="191.13" y2="22.92"/><line class="cls-2" x1="190.23" y1="16.61" x2="171.68" y2="19.19"/><path class="cls-2" d="M196.45.63l-21.9,5.19a31.46,31.46,0,0,1-6,13.66.13.13,0,0,0,0,.06l.5,2.37v0c.14.59.31,1.32.52,2.23,0,0,0,0,0,.06a44.52,44.52,0,0,1,11.81,12l23.3,1.08A27.13,27.13,0,0,0,202.25,33l.94,1,2.69-.13a29.82,29.82,0,0,0-3.19-4.15l.74.54,3.65-.36A31.87,31.87,0,0,0,202.73,26l.53.26s-.76.1,3-.24c-8.78-7.6-15.76-6-15.76-6l0-.13s7.38.27,12.47-8.59c-3.73.34-2.95.31-2.95.31l-.41.36a22.63,22.63,0,0,0,2.51-4.49l-3.71.44-.52.71a21.43,21.43,0,0,0,1.33-4.75l-2.74.25-.3.67A21.1,21.1,0,0,0,196.45.63Zm-5.82,20.18h0v0ZM190.25,19v0h0Z"/><path class="cls-2" d="M169,21.94l.48,2.25,0,0C169.34,23.26,169.17,22.53,169,21.94Z"/><path class="cls-2" d="M190.25,19l0,0h0Z"/><path class="cls-2" d="M168.46,19.54l.56,2.37-.5-2.37Z"/><path class="cls-2" d="M190.63,20.81l0,0v0Z"/></g><g id="book-4" data-name="book"><line class="cls-3" x1="189.82" y1="16.84" x2="191.23" y2="23.11"/><polygon class="cls-4" points="191.75 23.56 172.79 23.89 191.7 22.56 191.75 23.56"/><line class="cls-3" x1="191.19" y1="22.92" x2="189.78" y2="16.65"/><polygon class="cls-4" points="190.35 17.1 171.74 19.19 190.21 16.11 190.35 17.1"/><path class="cls-3" d="M190,17A23.83,23.83,0,0,0,196.5.63L174.61,5.82a31.39,31.39,0,0,1-6.05,13.65l1,4.71"/><path class="cls-3" d="M190.19,17.83a19.88,19.88,0,0,0,9-14l-2.73.24"/><path class="cls-3" d="M190.29,19A20.12,20.12,0,0,0,202.12,7.43l-3.71.44"/><path class="cls-3" d="M190.5,19.85s7.39.27,12.48-8.6c-3.73.34-2.95.31-2.95.31"/><path class="cls-3" d="M191.29,22.72s9.31,5.15,13.44,14.63l-23.3-1.09a44.42,44.42,0,0,0-11.81-12l-1.1-4.7"/><path class="cls-3" d="M191.09,21.84a29.52,29.52,0,0,1,14.85,11.94l-2.69.13"/><path class="cls-3" d="M190.69,20.8s8.62.76,16.45,9l-3.66.37"/><path class="cls-3" d="M190.53,20s7-1.58,15.75,6c-3.73.34-3,.24-3,.24"/></g></g><g class="cls-7"><g id="book-5" data-name="book"><polyline class="cls-2" points="153.38 97.39 153.41 97.41 153.61 97.5 153.88 97.63"/><line class="cls-2" x1="161.07" y1="101.05" x2="160.88" y2="100.95"/><line class="cls-2" x1="153.64" y1="96.85" x2="144.96" y2="117.9"/><polyline class="cls-2" points="161.3 101.16 161.28 101.14 161.07 101.05 160.88 100.95"/><line class="cls-2" x1="153.88" y1="97.63" x2="153.61" y2="97.5"/><line class="cls-2" x1="161.56" y1="100.61" x2="150.73" y2="120.64"/><path class="cls-2" d="M179.54,97.89l1-.13,1.42-3a35.26,35.26,0,0,0-6.79-.07l1.15-.35,2.07-4a35.21,35.21,0,0,0-6.93,1.34l.64-.35s-.34.87,1.6-3.22C160,90.89,157.38,99.29,157.38,99.29l-.15-.07s4.88-7.33-1.61-19.73c-2,4.09-1.5,3.26-1.5,3.26l.13.68a36.55,36.55,0,0,0-3.32-6.17l-2,4,.42,1a35.35,35.35,0,0,0-4.18-5l-1.25,3,.86,1.38A33.43,33.43,0,0,0,140,77.48l-7.92,26.6a50.53,50.53,0,0,1,11.12,17.28l.07,0,2.73,1.32,0,0,2.92,1.35.08,0a50.48,50.48,0,0,1,20.42-2.3L185.1,98.89A33.61,33.61,0,0,0,179.54,97.89Zm-23.36.83,0,0v0Zm2.22,1.09,0,0,0,0Z"/><path class="cls-2" d="M146,122.72l-2.76-1.28,0,0Z"/><path class="cls-2" d="M158.44,99.8h0l0,0Z"/><path class="cls-2" d="M149,124.15l-2.91-1.41,2.92,1.35Z"/><path class="cls-2" d="M156.2,98.77l0,0,0,0Z"/></g><g id="book-6" data-name="book"><line class="cls-3" x1="161.1" y1="100.99" x2="153.41" y2="97.33"/><polygon class="cls-4" points="154.13 96.98 144.99 117.84 153.21 96.6 154.13 96.98"/><line class="cls-3" x1="153.64" y1="97.44" x2="161.33" y2="101.1"/><polygon class="cls-4" points="162.03 100.79 150.75 120.59 161.15 100.32 162.03 100.79"/><path class="cls-3" d="M161,100.76a38,38,0,0,1,24.11-1.93l-15.61,22.94a50.48,50.48,0,0,0-20.42,2.3l-5.8-2.69"/><path class="cls-3" d="M159.94,100.25s8.24-7,22.06-5.55l-1.42,3"/><path class="cls-3" d="M158.42,99.75s6.17-8.2,20-9.5l-2.07,4"/><path class="cls-3" d="M157.41,99.24S160,90.83,173.74,88c-2,4.08-1.6,3.21-1.6,3.21"/><path class="cls-3" d="M153.94,97.4s-3.05-12.2-13.87-20L132.15,104a50.43,50.43,0,0,1,11.11,17.28l5.75,2.8"/><path class="cls-3" d="M155,97.91s.1-10.89-9.77-20.67l-1.25,3"/><path class="cls-3" d="M156.23,98.71s2.46-10-5.27-21.51l-2,4"/><path class="cls-3" d="M157.26,99.16s4.88-7.33-1.61-19.73c-2,4.09-1.51,3.26-1.51,3.26"/></g></g><g class="cls-7"><polyline class="cls-5" points="78.27 182.59 59.85 180.3 60.12 152.55 77.25 151.79"/><path class="cls-5" d="M75.92,185l-21.57-8.86,5.36-25L78,156.58S78,172.41,75.92,185Z"/><path class="cls-5" d="M80.62,157.28s6.19,3.12,21.6-2.31L78.6,144.42l-18.79,4.85Z"/><path class="cls-5" d="M78.63,155.8s6.47,2.56,22.24-4.63l-24.68-8.35-19.26,6.93Z"/><polygon class="cls-8" points="56.77 150.12 56.84 150.14 56.86 150.07 56.77 150.12"/><polygon class="cls-5" points="51.31 177.11 72.58 184.88 78.6 155.9 99.05 145.78 76.29 140.67 57.31 149.85 56.86 150.07 56.84 150.14 51.31 177.11"/><polygon class="cls-6" points="79.74 155.76 66.53 151.36 80.03 154.8 79.74 155.76"/><polygon class="cls-6" points="78.25 158.09 65.03 153.68 78.53 157.13 78.25 158.09"/><polygon class="cls-8" points="78.71 155.37 78.03 157.06 77.18 155.92 78.71 155.37"/></g></g></g></svg>