<svg xmlns="http://www.w3.org/2000/svg" viewBox="0 0 81.95 315.7"><defs><style>.cls-1{opacity:0.69;}.cls-2,.cls-6,.cls-7{fill:#ff7676;}.cls-2{stroke:#f2f2f2;}.cls-2,.cls-3,.cls-6{stroke-miterlimit:10;}.cls-3{fill:none;stroke:#fefaf4;}.cls-4{fill:#fefaf4;}.cls-5{opacity:0.6;}.cls-6{stroke:#f7f5f0;}.cls-8{fill:#f7f5f0;}</style></defs><g id="Layer_2" data-name="Layer 2"><g id="Layer_2-2" data-name="Layer 2"><g class="cls-1"><g id="book"><polyline class="cls-2" points="46.86 141.58 46.88 141.59 47.03 141.67 47.24 141.77"/><line class="cls-2" x1="52.6" y1="144.46" x2="52.46" y2="144.39"/><line class="cls-2" x1="46.58" y1="142" x2="57.93" y2="126.81"/><polyline class="cls-2" points="52.77 144.55 52.75 144.54 52.6 144.46 52.46 144.39"/><line class="cls-2" x1="47.24" y1="141.77" x2="47.03" y2="141.67"/><line class="cls-2" x1="52.5" y1="144.96" x2="62.24" y2="128.97"/><path class="cls-2" d="M60.93,159.89l9.84-20.23A31.5,31.5,0,0,1,64,126.33l-.06,0-2.15-1.11h0l-2.05-1-.06,0a44.42,44.42,0,0,1-16.8,1.53L27.29,143a27.35,27.35,0,0,0,4.93.88l-1.33.14-1.6,2.17a30,30,0,0,0,5.23.14l-.89.24-2,3.05a32.37,32.37,0,0,0,5.73-.93l-.53.24s.4-.65-1.7,2.45c11.45-2,14.63-8.39,14.63-8.39l.12.06s-4.88,5.55-1.24,15.1c2.09-3.1,1.62-2.48,1.62-2.48l0-.55a22.19,22.19,0,0,0,1.9,4.78l2-3.15-.22-.85a21.56,21.56,0,0,0,2.83,4l1.54-2.28-.32-.66A21.51,21.51,0,0,0,60.93,159.89ZM49,142.62l0,0h0Zm1.65.86h0v0Z"/><path class="cls-2" d="M61.78,125.18l-2-1.05v0Z"/><path class="cls-2" d="M50.64,143.48v0Z"/><path class="cls-2" d="M64,126.26l-2.19-1.07L64,126.3Z"/><path class="cls-2" d="M49,142.62h0Z"/></g><g id="book-2" data-name="book"><line class="cls-3" x1="52.57" y1="144.51" x2="46.83" y2="141.63"/><polygon class="cls-4" points="46.15 141.74 57.9 126.86 46.95 142.34 46.15 141.74"/><line class="cls-3" x1="47" y1="141.71" x2="52.75" y2="144.59"/><polygon class="cls-4" points="52.04 144.75 62.2 129.01 52.89 145.27 52.04 144.75"/><path class="cls-3" d="M52.38,144.57a23.81,23.81,0,0,0,8.52,15.36l9.84-20.23A31.41,31.41,0,0,1,64,126.37l-4.28-2.2"/><path class="cls-3" d="M51.58,144.16A19.86,19.86,0,0,0,56.69,160l1.54-2.27"/><path class="cls-3" d="M50.6,143.49A20.1,20.1,0,0,0,52.08,160l2-3.15"/><path class="cls-3" d="M49.82,143.13s-4.88,5.55-1.24,15.09c2.09-3.1,1.62-2.48,1.62-2.48"/><path class="cls-3" d="M47.1,141.92s-9.89,4-19.84,1.15l15.58-17.35a44.67,44.67,0,0,0,16.8-1.53L64,126.3"/><path class="cls-3" d="M47.9,142.32a29.45,29.45,0,0,1-18.64,3.94l1.6-2.16"/><path class="cls-3" d="M49,142.66s-6,6.2-17.39,7l2-3.06"/><path class="cls-3" d="M49.7,143.07s-3.18,6.4-14.63,8.38c2.1-3.1,1.7-2.44,1.7-2.44"/></g></g><g class="cls-5"><polyline class="cls-6" points="32.95 45.61 49.66 53.68 40.52 79.89 24.05 75.12"/><path class="cls-6" d="M35.92,44.13l17.6,15.31-13.08,22L24.83,70.33S30,55.36,35.92,44.13Z"/><path class="cls-6" d="M22.61,68.84S17.75,63.9,1.4,64.1l19,17.56,19.34,1.43Z"/><path class="cls-6" d="M24,70.87s-5.31-4.49-22.55-2.73L22.17,84l20.47-.4Z"/><polygon class="cls-7" points="42.91 83.27 42.85 83.22 42.81 83.28 42.91 83.27"/><polygon class="cls-6" points="56.72 59.45 39.07 45.26 24.08 70.79 1.47 73.83 21.39 85.96 42.31 83.34 42.81 83.28 42.85 83.22 56.72 59.45"/><polygon class="cls-8" points="22.95 70.56 34.06 78.97 22.38 71.38 22.95 70.56"/><polygon class="cls-8" points="25.11 68.83 36.22 77.24 24.54 69.65 25.11 68.83"/><polygon class="cls-7" points="23.81 71.26 24.99 69.88 25.43 71.23 23.81 71.26"/></g><g class="cls-5"><g id="book-3" data-name="book"><polyline class="cls-2" points="66.59 16.71 66.57 16.72 66.41 16.75 66.18 16.79"/><line class="cls-2" x1="60.27" y1="17.85" x2="60.44" y2="17.83"/><line class="cls-2" x1="66.57" y1="16.21" x2="66.6" y2="35.17"/><polyline class="cls-2" points="60.09 17.89 60.11 17.89 60.27 17.86 60.44 17.83"/><line class="cls-2" x1="66.18" y1="16.79" x2="66.41" y2="16.75"/><line class="cls-2" x1="60.06" y1="17.39" x2="61.86" y2="36.03"/><path class="cls-2" d="M44.36,10.51,48.62,32.6A31.45,31.45,0,0,1,62,39.21h.06l2.39-.4h0l2.25-.43h.06a44.62,44.62,0,0,1,12.52-11.3l2-23.23a27,27,0,0,0-4.47,2.24l1-.9,0-2.7a29.65,29.65,0,0,0-4.27,3l.57-.73L74,1.1a32.49,32.49,0,0,0-4,4.19l.28-.52s.07.77-.11-3c-8,8.45-6.68,15.48-6.68,15.48l-.12,0s.57-7.37-8.07-12.83c.18,3.74.19,3,.19,3l.35.43a22.47,22.47,0,0,0-4.39-2.69l.29,3.72.69.55a21.78,21.78,0,0,0-4.7-1.53l.14,2.75.66.33A21.41,21.41,0,0,0,44.36,10.51Zm19.91,6.65v0h0Zm-1.83.3h0v0Z"/><path class="cls-2" d="M64.5,38.79l2.26-.38v0Z"/><path class="cls-2" d="M62.44,17.46l0,0v0Z"/><path class="cls-2" d="M62.07,39.26l2.4-.46-2.39.4Z"/><path class="cls-2" d="M64.27,17.16l0,0h0Z"/></g><g id="book-4" data-name="book"><line class="cls-3" x1="60.27" y1="17.8" x2="66.59" y2="16.66"/><polygon class="cls-4" points="67.07 16.16 66.6 35.12 66.07 16.16 67.07 16.16"/><line class="cls-3" x1="66.4" y1="16.69" x2="60.08" y2="17.84"/><polygon class="cls-4" points="60.55 17.29 61.86 35.97 59.56 17.39 60.55 17.29"/><path class="cls-3" d="M60.39,17.64a23.89,23.89,0,0,0-16-7.19l4.27,22.09A31.55,31.55,0,0,1,62,39.16l4.74-.81"/><path class="cls-3" d="M61.28,17.48A19.9,19.9,0,0,0,47.67,7.87l.14,2.74"/><path class="cls-3" d="M62.46,17.43A20.11,20.11,0,0,0,51.39,5.12l.28,3.73"/><path class="cls-3" d="M63.31,17.25s.57-7.37-8.07-12.82c.18,3.74.19,3,.19,3"/><path class="cls-3" d="M66.21,16.59s5.54-9.1,15.17-12.83L79.33,27A44.48,44.48,0,0,0,66.81,38.29l-4.74.91"/><path class="cls-3" d="M65.32,16.75A29.5,29.5,0,0,1,77.87,2.41l0,2.69"/><path class="cls-3" d="M64.27,17.11S65.38,8.52,74,1.05l.21,3.66"/><path class="cls-3" d="M63.43,17.23s-1.29-7,6.67-15.49c.19,3.75.12,3,.12,3"/></g></g><g class="cls-1"><g id="book-5" data-name="book"><polyline class="cls-2" points="49.8 259.7 49.77 259.68 49.62 259.52 49.4 259.31"/><line class="cls-2" x1="43.75" y1="253.71" x2="43.9" y2="253.86"/><line class="cls-2" x1="50.22" y1="259.28" x2="33.36" y2="274.59"/><polyline class="cls-2" points="43.57 253.53 43.59 253.55 43.75 253.71 43.9 253.86"/><line class="cls-2" x1="49.4" y1="259.31" x2="49.62" y2="259.52"/><line class="cls-2" x1="43.99" y1="253.1" x2="28.83" y2="270.09"/><path class="cls-2" d="M37.63,230.37,21.35,252.84a50.63,50.63,0,0,1,4.76,20l.06.06,2.26,2.29,0,0c.58.56,1.29,1.25,2.17,2.12l.07.06a50.43,50.43,0,0,1,20,4.59L73.05,265.5a33.85,33.85,0,0,0-5.56-3.09l1.59.34,2.39-2.19a35.09,35.09,0,0,0-6.1-2.24l1.1.05,3.1-3.19a34.77,34.77,0,0,0-6.93-1l.68-.11s-.63.69,2.56-2.52c-13.87-1.9-19.11,5.18-19.11,5.18l-.12-.12s7-5.31,5-19.17c-3.19,3.22-2.49,2.6-2.49,2.6l-.11.72a34.73,34.73,0,0,0-1.09-7l-3.09,3.31.06,1.2a34.57,34.57,0,0,0-2.37-6.37l-2.33,2.36.22,1A33.13,33.13,0,0,0,37.63,230.37Zm9.92,27.15,0,0,0,0Zm-1.73-1.76,0,0,0,0Z"/><path class="cls-2" d="M28.46,275.2l2.14,2.17,0-.05C29.75,276.45,29,275.76,28.46,275.2Z"/><path class="cls-2" d="M45.82,255.76v.05l0,0Z"/><path class="cls-2" d="M26.12,272.92l2.31,2.26-2.26-2.29Z"/><path class="cls-2" d="M47.55,257.52h.05l0,0Z"/></g><g id="book-6" data-name="book"><line class="cls-3" x1="43.8" y1="253.66" x2="49.84" y2="259.66"/><polygon class="cls-4" points="50.6 259.6 33.41 274.54 49.93 258.86 50.6 259.6"/><line class="cls-3" x1="49.66" y1="259.48" x2="43.61" y2="253.48"/><polygon class="cls-4" points="44.41 253.39 28.87 270.04 43.66 252.72 44.41 253.39"/><path class="cls-3" d="M44,253.66a38,38,0,0,0-6.37-23.34L21.39,252.79a50.59,50.59,0,0,1,4.77,20l4.49,4.54"/><path class="cls-3" d="M44.88,254.5s3.81-10.13-2.26-22.63l-2.34,2.36"/><path class="cls-3" d="M45.87,255.76s5.62-8.58,2.15-22L44.93,237"/><path class="cls-3" d="M46.7,256.54s7-5.31,5-19.16c-3.19,3.21-2.49,2.59-2.49,2.59"/><path class="cls-3" d="M49.6,259.18s12.51-1.27,23.5,6.27L50.77,281.93a50.55,50.55,0,0,0-20-4.6l-4.58-4.45"/><path class="cls-3" d="M48.75,258.34s10.21-3.79,22.76,2.18l-2.38,2.19"/><path class="cls-3" d="M47.59,257.47s8.54-5.69,22-2.33l-3.09,3.18"/><path class="cls-3" d="M46.82,256.66s5.24-7.08,19.11-5.18c-3.19,3.22-2.56,2.52-2.56,2.52"/></g></g><g class="cls-5"><polyline class="cls-6" points="60.02 313.43 47.8 311.92 47.98 293.51 59.33 293.01"/><path class="cls-6" d="M58.46,315l-14.31-5.88,3.55-16.57,12.16,3.63A146.88,146.88,0,0,1,58.46,315Z"/><path class="cls-6" d="M61.57,296.65s4.11,2.07,14.33-1.53l-15.67-7-12.46,3.22Z"/><path class="cls-6" d="M60.25,295.67s4.29,1.69,14.75-3.07l-16.36-5.54-12.78,4.6Z"/><polygon class="cls-7" points="45.75 291.9 45.8 291.91 45.81 291.87 45.75 291.9"/><polygon class="cls-6" points="42.14 309.8 56.24 314.95 60.23 295.74 73.8 289.02 58.7 285.63 46.12 291.72 45.81 291.87 45.8 291.91 42.14 309.8"/><polygon class="cls-8" points="60.94 295.8 52.23 292.72 61.23 294.84 60.94 295.8"/><polygon class="cls-8" points="59.95 297.35 51.23 294.26 60.24 296.39 59.95 297.35"/><polygon class="cls-7" points="60.3 295.38 59.86 296.5 59.29 295.75 60.3 295.38"/></g></g></g></svg>