<svg xmlns="http://www.w3.org/2000/svg" viewBox="0 0 167.49 461.86"><defs><style>.cls-1{opacity:0.69;}.cls-2,.cls-5,.cls-6,.cls-8{fill:#ff7676;}.cls-2{stroke:#f2f2f2;}.cls-2,.cls-3,.cls-5,.cls-8{stroke-miterlimit:10;}.cls-3{fill:none;stroke:#fefaf4;}.cls-4{fill:#fefaf4;}.cls-5,.cls-8{stroke:#f7f5f0;}.cls-5{stroke-width:3px;}.cls-7{fill:#f7f5f0;}.cls-9{opacity:0.6;}</style></defs><g id="Layer_2" data-name="Layer 2"><g id="Layer_2-2" data-name="Layer 2"><g class="cls-1"><g id="book"><polyline class="cls-2" points="134.93 84.76 134.96 84.78 135.16 84.87 135.43 85"/><line class="cls-2" x1="142.62" y1="88.42" x2="142.42" y2="88.32"/><line class="cls-2" x1="135.18" y1="84.22" x2="126.5" y2="105.27"/><polyline class="cls-2" points="142.85 88.53 142.82 88.51 142.62 88.42 142.42 88.32"/><line class="cls-2" x1="135.43" y1="85" x2="135.16" y2="84.87"/><line class="cls-2" x1="143.11" y1="87.98" x2="132.27" y2="108.01"/><path class="cls-2" d="M161.08,85.25l1-.12,1.43-3a34.57,34.57,0,0,0-6.8-.07l1.15-.35,2.07-4A35.21,35.21,0,0,0,153,79l.65-.35s-.35.87,1.59-3.22c-13.71,2.8-16.32,11.21-16.32,11.21l-.16-.07s4.88-7.33-1.61-19.73c-1.94,4.09-1.5,3.26-1.5,3.26l.13.68a35.17,35.17,0,0,0-3.32-6.17l-1.94,4,.42,1a35.56,35.56,0,0,0-4.19-5l-1.24,3,.86,1.37a35.18,35.18,0,0,0-4.79-4.18l-7.93,26.59a50.65,50.65,0,0,1,11.12,17.29l.08,0,2.72,1.33,0,0,2.92,1.35.07,0A50.57,50.57,0,0,1,151,109.2l15.62-22.94A32.76,32.76,0,0,0,161.08,85.25Zm-23.35.84h0v0Zm2.21,1.09,0,0h0Z"/><path class="cls-2" d="M127.58,110.09l-2.76-1.28,0,0Z"/><path class="cls-2" d="M140,87.16l0,0,0,0Z"/><path class="cls-2" d="M130.52,111.52l-2.9-1.41,2.92,1.35Z"/><path class="cls-2" d="M137.74,86.14v0h0Z"/></g><g id="book-2" data-name="book"><line class="cls-3" x1="142.65" y1="88.36" x2="134.95" y2="84.7"/><polygon class="cls-4" points="135.68 84.35 126.53 105.21 134.75 83.97 135.68 84.35"/><line class="cls-3" x1="135.18" y1="84.81" x2="142.88" y2="88.47"/><polygon class="cls-4" points="143.57 88.16 132.3 107.95 142.69 87.69 143.57 88.16"/><path class="cls-3" d="M142.56,88.13a38,38,0,0,1,24.12-1.93l-15.62,22.94a50.48,50.48,0,0,0-20.42,2.3l-5.79-2.69"/><path class="cls-3" d="M141.49,87.62s8.24-7,22.06-5.55l-1.43,3"/><path class="cls-3" d="M140,87.12s6.16-8.2,20-9.5l-2.07,4"/><path class="cls-3" d="M139,86.6s2.61-8.4,16.33-11.21c-1.94,4.09-1.59,3.22-1.59,3.22"/><path class="cls-3" d="M135.49,84.77s-3.05-12.2-13.88-20l-7.92,26.6a50.53,50.53,0,0,1,11.12,17.28l5.74,2.79"/><path class="cls-3" d="M136.57,85.28s.09-10.89-9.78-20.67l-1.25,3"/><path class="cls-3" d="M137.77,86.08s2.46-10-5.27-21.51l-1.95,4"/><path class="cls-3" d="M138.8,86.53s4.88-7.33-1.61-19.73c-1.94,4.09-1.5,3.26-1.5,3.26"/></g></g><g class="cls-1"><polyline class="cls-5" points="67.27 11.79 79.38 37.39 43.41 59.74 28.43 38.29"/><path class="cls-5" d="M72.23,12.88l6.21,35.05L41.87,61.45,33.94,33.36S54.42,20.52,72.23,12.88Z"/><path class="cls-5" d="M32.74,29.45s-1-10.52-20.65-25.94l5.74,39.06L39.42,62.82Z"/><path class="cls-5" d="M32.46,33.23S30.46,22.8,8.3,8.36L17.72,47,42.4,66.13Z"/><polygon class="cls-6" points="43.01 66.05 42.97 65.93 42.87 65.97 43.01 66.05"/><polygon class="cls-5" points="82.25 51 74.87 17.24 32.61 33.18 2.84 15.11 14.87 48.62 42.21 65.56 42.87 65.97 42.97 65.93 82.25 51"/><polygon class="cls-7" points="32.2 31.62 36.63 52.46 29.32 32.45 32.2 31.62"/><polygon class="cls-7" points="36.42 31.64 40.85 52.48 33.54 32.47 36.42 31.64"/><polygon class="cls-6" points="31.83 33.48 34.56 32.97 33.79 35 31.83 33.48"/></g><g class="cls-1"><polyline class="cls-8" points="120.82 164.96 102.4 162.67 102.66 134.92 119.79 134.16"/><path class="cls-8" d="M118.47,167.32,96.9,158.45l5.35-25L120.58,139S120.49,154.78,118.47,167.32Z"/><path class="cls-8" d="M123.17,139.65s6.18,3.12,21.6-2.31l-23.63-10.55-18.78,4.85Z"/><path class="cls-8" d="M121.17,138.17s6.48,2.56,22.25-4.63l-24.68-8.35-19.26,6.93Z"/><polygon class="cls-6" points="99.31 132.48 99.39 132.51 99.4 132.44 99.31 132.48"/><polygon class="cls-8" points="93.86 159.48 115.13 167.25 121.14 138.27 141.59 128.15 118.83 123.04 99.86 132.22 99.4 132.44 99.39 132.51 93.86 159.48"/><polygon class="cls-7" points="122.29 138.13 109.07 133.72 122.57 137.17 122.29 138.13"/><polygon class="cls-7" points="120.8 140.46 107.58 136.05 121.08 139.5 120.8 140.46"/><polygon class="cls-6" points="121.25 137.74 120.58 139.42 119.72 138.29 121.25 137.74"/></g><g class="cls-9"><polyline class="cls-8" points="137.61 292.97 125.4 291.45 125.57 273.05 136.93 272.54"/><path class="cls-8" d="M136.06,294.53l-14.31-5.88,3.55-16.56,12.16,3.63A146.66,146.66,0,0,1,136.06,294.53Z"/><path class="cls-8" d="M139.17,276.18s4.1,2.07,14.33-1.53l-15.67-7-12.46,3.21Z"/><path class="cls-8" d="M137.85,275.2s4.29,1.7,14.75-3.07l-16.37-5.54-12.77,4.6Z"/><polygon class="cls-6" points="123.35 271.43 123.4 271.45 123.41 271.4 123.35 271.43"/><polygon class="cls-8" points="119.73 289.33 133.84 294.49 137.83 275.27 151.39 268.55 136.3 265.17 123.72 271.25 123.41 271.4 123.4 271.45 119.73 289.33"/><polygon class="cls-7" points="138.54 275.34 129.82 272.25 138.82 274.38 138.54 275.34"/><polygon class="cls-7" points="137.55 276.88 128.83 273.8 137.83 275.92 137.55 276.88"/><polygon class="cls-6" points="137.9 274.91 137.45 276.03 136.89 275.28 137.9 274.91"/></g><g class="cls-1"><g id="book-3" data-name="book"><polyline class="cls-2" points="62.72 342.06 62.71 342.03 62.66 341.81 62.59 341.52"/><line class="cls-2" x1="60.68" y1="333.79" x2="60.74" y2="334"/><line class="cls-2" x1="62.14" y1="342.2" x2="83.93" y2="335.6"/><polyline class="cls-2" points="60.62 333.54 60.63 333.57 60.68 333.79 60.74 334"/><line class="cls-2" x1="62.59" y1="341.52" x2="62.66" y2="341.81"/><line class="cls-2" x1="60.04" y1="333.69" x2="82.41" y2="329.4"/><path class="cls-2" d="M46.55,321.49l-.74-.7-3.22.8a34.68,34.68,0,0,0,4.25,5.3l-1-.67-4.43.95a35.17,35.17,0,0,0,5.42,4.52l-.68-.28s.9-.28-3.5.8c10.85,8.85,19,5.55,19,5.55l0,.16s-8.76.86-14.25,13.74c4.39-1.09,3.47-.9,3.47-.9l.45-.54a35.09,35.09,0,0,0-2.68,6.48l4.32-1,.52-1a35.46,35.46,0,0,0-1.2,6.38l3.1-.92.53-1.54a33.25,33.25,0,0,0-.21,6.36l25.6-10.7a50.47,50.47,0,0,1,6.35-19.54.29.29,0,0,1,0-.09c-.29-1.2-.52-2.17-.7-3v0c-.2-.81-.47-1.83-.8-3.12l0-.08a50.53,50.53,0,0,1-14.7-14.36L43.8,316.55A33.27,33.27,0,0,0,46.55,321.49ZM62,339.05v0h0Zm-.56-2.4h0v0Z"/><path class="cls-2" d="M87,331.71l.76,3h-.06C87.39,333.46,87.16,332.49,87,331.71Z"/><path class="cls-2" d="M61.38,336.62l0,0h0Z"/><path class="cls-2" d="M86.23,328.53l.74,3.15c-.2-.81-.47-1.83-.8-3.12Z"/><path class="cls-2" d="M62,339l0,0v0Z"/></g><g id="book-4" data-name="book"><line class="cls-3" x1="60.62" y1="333.81" x2="62.66" y2="342.07"/><polygon class="cls-4" points="61.93 341.74 83.87 335.62 62.22 342.7 61.93 341.74"/><line class="cls-3" x1="62.6" y1="341.83" x2="60.56" y2="333.56"/><polygon class="cls-4" points="59.88 333.21 82.34 329.42 60.07 334.19 59.88 333.21"/><path class="cls-3" d="M60.5,334a38,38,0,0,1-16.76-17.45l27.64-2.42a50.53,50.53,0,0,0,14.71,14.35l1.59,6.19"/><path class="cls-3" d="M60.78,335.17s-10.65-1.94-18.25-13.57l3.22-.79"/><path class="cls-3" d="M61.36,336.66s-10.25.42-20-9.47l4.43-.95"/><path class="cls-3" d="M61.6,337.77s-8.16,3.3-19-5.54c4.39-1.09,3.5-.81,3.5-.81"/><path class="cls-3" d="M62.37,341.62S54.86,351.7,55.68,365l25.61-10.69a50.62,50.62,0,0,1,6.34-19.55l-1.46-6.21"/><path class="cls-3" d="M62.09,340.46s-8.5,6.82-9.82,20.65l3.1-.93"/><path class="cls-3" d="M61.94,339s-9.27,4.4-13.31,17.69l4.32-1"/><path class="cls-3" d="M61.64,337.94s-8.76.86-14.26,13.73c4.4-1.08,3.48-.9,3.48-.9"/></g></g><g class="cls-1"><g id="book-5" data-name="book"><polyline class="cls-2" points="57.48 447.08 57.47 447.06 57.44 446.9 57.38 446.68"/><line class="cls-2" x1="56.07" y1="440.82" x2="56.11" y2="440.98"/><line class="cls-2" x1="57.97" y1="447.04" x2="39.04" y2="447.86"/><polyline class="cls-2" points="56.03 440.63 56.03 440.65 56.07 440.82 56.11 440.98"/><line class="cls-2" x1="57.39" y1="446.68" x2="57.44" y2="446.9"/><line class="cls-2" x1="56.53" y1="440.58" x2="37.98" y2="443.16"/><path class="cls-2" d="M62.75,424.61l-21.89,5.18a31.55,31.55,0,0,1-6,13.66s0,.05,0,.07c.21,1,.37,1.76.5,2.37v0c.14.58.31,1.31.52,2.22a.64.64,0,0,1,0,.07,44.42,44.42,0,0,1,11.81,12L71,461.32A26.61,26.61,0,0,0,68.55,457l.94.94,2.69-.13A30.42,30.42,0,0,0,69,453.61l.74.55,3.65-.37A31.87,31.87,0,0,0,69,450l.53.26s-.76.1,3-.24c-8.78-7.6-15.76-6-15.76-6l0-.12s7.38.26,12.47-8.6c-3.73.34-3,.31-3,.31l-.41.37a23,23,0,0,0,2.51-4.5l-3.71.44-.52.72a21.68,21.68,0,0,0,1.33-4.76l-2.73.25-.31.67A21,21,0,0,0,62.75,424.61Zm-5.82,20.17h0v0ZM56.55,443v0h0Z"/><path class="cls-2" d="M35.33,445.92l.48,2.24,0,0C35.64,447.23,35.47,446.5,35.33,445.92Z"/><path class="cls-2" d="M56.55,443l0,0h0Z"/><path class="cls-2" d="M34.76,443.51l.56,2.38c-.13-.61-.29-1.39-.5-2.37Z"/><path class="cls-2" d="M56.93,444.78l0,0v0Z"/></g><g id="book-6" data-name="book"><line class="cls-3" x1="56.13" y1="440.81" x2="57.53" y2="447.08"/><polygon class="cls-4" points="58.05 447.53 39.09 447.86 58.01 446.54 58.05 447.53"/><line class="cls-3" x1="57.49" y1="446.89" x2="56.08" y2="440.62"/><polygon class="cls-4" points="56.65 441.07 38.03 443.16 56.51 440.08 56.65 441.07"/><path class="cls-3" d="M56.29,440.93A23.87,23.87,0,0,0,62.8,424.6l-21.89,5.19a31.45,31.45,0,0,1-6,13.66l1,4.7"/><path class="cls-3" d="M56.49,441.8a19.88,19.88,0,0,0,9-14l-2.73.25"/><path class="cls-3" d="M56.59,443a20.12,20.12,0,0,0,11.83-11.58l-3.71.44"/><path class="cls-3" d="M56.8,443.82s7.39.27,12.48-8.59c-3.73.34-3,.31-3,.31"/><path class="cls-3" d="M57.59,446.69S66.9,451.85,71,461.32l-23.3-1.08a44.52,44.52,0,0,0-11.81-12l-1.1-4.69"/><path class="cls-3" d="M57.39,445.81a29.5,29.5,0,0,1,14.85,11.95l-2.69.12"/><path class="cls-3" d="M57,444.78s8.62.75,16.45,9l-3.66.36"/><path class="cls-3" d="M56.83,444s7-1.59,15.75,6c-3.73.33-3,.23-3,.23"/></g></g></g></g></svg>