<svg xmlns="http://www.w3.org/2000/svg" viewBox="0 0 152.81 383.51"><defs><style>.cls-1{opacity:0.69;}.cls-2,.cls-5,.cls-8{fill:#ff7676;}.cls-2{stroke:#f7f5f0;}.cls-2,.cls-5,.cls-6{stroke-miterlimit:10;}.cls-3{fill:#f7f5f0;}.cls-4{opacity:0.6;}.cls-5{stroke:#f2f2f2;}.cls-6{fill:none;stroke:#fefaf4;}.cls-7{fill:#fefaf4;}</style></defs><g id="Layer_2" data-name="Layer 2"><g id="Layer_2-2" data-name="Layer 2"><g class="cls-1"><path class="cls-2" d="M88.51,327.71C72.92,340,65.83,332,65.83,332l16.68,19.5s12.12,1.32,27.71-11Z"/><path class="cls-2" d="M82.86,349.06s7.09,4.67,16.53,24.82L73,365.33l-9.27-23.78Z"/><path class="cls-2" d="M87.21,350.61s5.28,6.47,8.16,28.67l-23.3-12.86L66.35,339Z"/><path class="cls-2" d="M87.5,320.17c-11.06,16.07-23.22,18.44-23.22,18.44l22.56,13.23S99,349.47,110.06,333.4Z"/><path class="cls-2" d="M86.89,315.63c-11.34,16.48-23.58,22.53-23.58,22.53l23.14,13.57S98.69,345.68,110,329.2Z"/><path class="cls-2" d="M92.78,382.61c-.75-12.84-4-27.34-5.13-31.82.93-.86,10.93-10.13,22.19-26.34L85.93,310.58C75.3,327.52,63.66,337,63.66,337v.17a191.59,191.59,0,0,1,4.9,31.18Z"/><polygon class="cls-3" points="87.5 351.32 68.53 339.35 88.02 350.46 87.5 351.32"/><polygon class="cls-3" points="89.81 348.48 70.61 337.25 90.3 347.6 89.81 348.48"/></g><g class="cls-4"><g id="book"><polyline class="cls-5" points="132.63 84.25 132.62 84.22 132.57 84 132.5 83.71"/><line class="cls-5" x1="130.69" y1="75.96" x2="130.74" y2="76.17"/><line class="cls-5" x1="133.22" y1="84.12" x2="110.8" y2="88.15"/><polyline class="cls-5" points="130.63 75.71 130.64 75.75 130.69 75.96 130.74 76.17"/><line class="cls-5" x1="132.5" y1="83.71" x2="132.57" y2="84.01"/><line class="cls-5" x1="131.21" y1="75.58" x2="109.34" y2="81.93"/><path class="cls-5" d="M137.88,52.93,112.16,63.34a50.62,50.62,0,0,1-6.57,19.47s0,0,0,.08l.7,3.14v0c.19.78.43,1.74.72,2.94,0,0,0,.06,0,.09a50.52,50.52,0,0,1,14.54,14.52l27.67-2.11a34,34,0,0,0-3.08-5.57l1.17,1.13,3.18-.59a35.16,35.16,0,0,0-4-5.14l.91.63,4.31-1.06a35.09,35.09,0,0,0-5.32-4.55l.64.28s-.91.25,3.5-.78c-10.75-9-18.94-5.75-18.94-5.75l0-.17s8.77-.77,14.41-13.58c-4.41,1-3.48.87-3.48.87l-.48.56a35,35,0,0,0,2.78-6.49l-4.38,1.17-.59,1.05a33.94,33.94,0,0,0,1.37-6.65l-3.23.75-.33,1A33.77,33.77,0,0,0,137.88,52.93Zm-6,28.28h0v0Zm-.53-2.41v0h0Z"/><path class="cls-5" d="M106.32,86.07l.67,3,.05,0C106.75,87.81,106.51,86.85,106.32,86.07Z"/><path class="cls-5" d="M131.35,78.8l0,0h0Z"/><path class="cls-5" d="M105.54,82.89l.77,3.14-.7-3.14Z"/><path class="cls-5" d="M131.88,81.21l0,0v0Z"/></g><g id="book-2" data-name="book"><line class="cls-6" x1="130.75" y1="75.95" x2="132.69" y2="84.24"/><polygon class="cls-7" points="133.37 84.59 110.86 88.13 133.19 83.61 133.37 84.59"/><line class="cls-6" x1="132.64" y1="83.99" x2="130.69" y2="75.7"/><polygon class="cls-7" points="131.42 76.04 109.41 81.91 131.14 75.08 131.42 76.04"/><path class="cls-6" d="M131,76.07a38,38,0,0,0,7-23.15l-25.73,10.4a50.57,50.57,0,0,1-6.57,19.47l1.4,6.24"/><path class="cls-6" d="M131.23,77.23s8.6-6.56,10.09-20.38l-3.24.76"/><path class="cls-6" d="M131.39,78.83s9.32-4.29,13.52-17.54l-4.38,1.17"/><path class="cls-6" d="M131.68,79.93s8.77-.78,14.41-13.59c-4.4,1-3.48.88-3.48.88"/><path class="cls-6" d="M132.74,83.7s11.28,5.57,16.59,17.79l-27.67,2.11a50.56,50.56,0,0,0-14.53-14.52l-1.52-6.2"/><path class="cls-6" d="M132.47,82.54s10.66,2.21,18.13,13.93l-3.18.59"/><path class="cls-6" d="M132,81.19s10.25-.3,19.9,9.71l-4.31,1"/><path class="cls-6" d="M131.72,80.09s8.2-3.22,18.94,5.75c-4.41,1-3.5.78-3.5.78"/></g></g><g class="cls-4"><g id="book-3" data-name="book"><polyline class="cls-5" points="24.81 68.14 24.84 68.12 25.02 67.99 25.28 67.83"/><line class="cls-5" x1="31.89" y1="63.39" x2="31.71" y2="63.51"/><line class="cls-5" x1="24.48" y1="67.64" x2="38.13" y2="85.86"/><polyline class="cls-5" points="32.1 63.25 32.07 63.27 31.89 63.39 31.71 63.51"/><line class="cls-5" x1="25.28" y1="67.83" x2="25.03" y2="67.99"/><line class="cls-5" x1="31.76" y1="62.75" x2="43.44" y2="82.31"/><path class="cls-5" d="M38.61,45.91,39,45l-1.85-2.76A34.94,34.94,0,0,0,33.64,48l.28-1.17L31.52,43a34.61,34.61,0,0,0-2.39,6.64l0-.74s.57.75-2-3c-4.6,13.22,1.29,19.76,1.29,19.76l-.14.09s-3.8-7.94-17.78-8.7c2.52,3.76,2,3,2,3l.66.24a35.63,35.63,0,0,0-7-.31l2.43,3.72,1.09.16a35,35,0,0,0-6.41,1l1.93,2.6,1.63,0a33.87,33.87,0,0,0-6,2l18.81,20.4a50.44,50.44,0,0,1,20.53-.71l.08,0,2.53-1.66,0,0,2.65-1.81.07,0a50.72,50.72,0,0,1,8.47-18.73L42.32,41.64A33,33,0,0,0,38.61,45.91ZM27.39,66.41l0,0,0,0Zm2.06-1.35v0h0Z"/><path class="cls-5" d="M42.83,87.4l-2.52,1.72v-.06Z"/><path class="cls-5" d="M29.46,65v0Z"/><path class="cls-5" d="M45.56,85.6l-2.7,1.77,2.65-1.81Z"/><path class="cls-5" d="M27.44,66.42h-.05l0,0Z"/></g><g id="book-4" data-name="book"><line class="cls-6" x1="31.85" y1="63.34" x2="24.78" y2="68.08"/><polygon class="cls-7" points="24.84 67.28 38.1 85.81 24.04 67.88 24.84 67.28"/><line class="cls-6" x1="24.99" y1="67.94" x2="32.06" y2="63.2"/><polygon class="cls-7" points="32.16 62.44 43.4 82.25 31.3 62.95 32.16 62.44"/><path class="cls-6" d="M31.61,63.29A38.06,38.06,0,0,1,42.28,41.58L54,66.73a50.52,50.52,0,0,0-8.46,18.72l-5.27,3.61"/><path class="cls-6" d="M30.62,64s-1.82-10.67,6.51-21.8L39,44.92"/><path class="cls-6" d="M29.42,65S25.52,55.52,31.48,43l2.41,3.84"/><path class="cls-6" d="M28.46,65.62s-5.9-6.55-1.29-19.77c2.52,3.76,1.95,3,1.95,3"/><path class="cls-6" d="M25.11,67.66S13.06,64,.84,69.37l18.81,20.4a50.57,50.57,0,0,1,20.54-.72l5.34-3.5"/><path class="cls-6" d="M26.1,67s-9.31-5.65-22.76-2.16l1.93,2.59"/><path class="cls-6" d="M27.4,66.36S20.1,59.15,6.22,59.9l2.44,3.71"/><path class="cls-6" d="M28.31,65.71s-3.8-7.94-17.77-8.7c2.52,3.76,2,3,2,3"/></g></g><g class="cls-4"><g id="book-5" data-name="book"><polyline class="cls-5" points="63.05 18.16 63.08 18.17 63.23 18.25 63.43 18.35"/><line class="cls-5" x1="68.8" y1="21.04" x2="68.65" y2="20.97"/><line class="cls-5" x1="62.78" y1="18.57" x2="74.12" y2="3.39"/><polyline class="cls-5" points="68.97 21.13 68.95 21.11 68.8 21.04 68.65 20.96"/><line class="cls-5" x1="63.43" y1="18.35" x2="63.23" y2="18.25"/><line class="cls-5" x1="68.69" y1="21.54" x2="78.43" y2="5.55"/><path class="cls-5" d="M77.12,36.47,87,16.23A31.41,31.41,0,0,1,80.21,2.91a.1.1,0,0,1,0,0L78,1.77l0,0-2.06-1-.06,0A44.62,44.62,0,0,1,59.07,2.25L43.49,19.6a26.29,26.29,0,0,0,4.92.89l-1.33.14-1.6,2.16a29.22,29.22,0,0,0,5.24.15l-.9.23-2,3.06a31.74,31.74,0,0,0,5.73-.94l-.54.25s.4-.66-1.69,2.45c11.44-2,14.62-8.39,14.62-8.39l.12.06s-4.88,5.55-1.24,15.1c2.1-3.11,1.62-2.48,1.62-2.48v-.56a22.2,22.2,0,0,0,1.89,4.79l2-3.15-.22-.85a21.82,21.82,0,0,0,2.84,4l1.54-2.28-.33-.66A22.1,22.1,0,0,0,77.12,36.47ZM65.18,19.2l0,0h0Zm1.65.85h0v0Z"/><path class="cls-5" d="M78,1.75l-2-1,0,.05Z"/><path class="cls-5" d="M66.83,20.05v0Z"/><path class="cls-5" d="M80.2,2.84,78,1.77l2.16,1.1Z"/><path class="cls-5" d="M65.18,19.2h0Z"/></g><g id="book-6" data-name="book"><line class="cls-6" x1="68.77" y1="21.08" x2="63.02" y2="18.2"/><polygon class="cls-7" points="62.34 18.32 74.09 3.43 63.15 18.92 62.34 18.32"/><line class="cls-6" x1="63.2" y1="18.29" x2="68.94" y2="21.17"/><polygon class="cls-7" points="68.23 21.32 78.4 5.59 69.09 21.84 68.23 21.32"/><path class="cls-6" d="M68.57,21.14a23.84,23.84,0,0,0,8.52,15.37l9.84-20.23A31.41,31.41,0,0,1,80.18,3L75.91.75"/><path class="cls-6" d="M67.77,20.74a19.89,19.89,0,0,0,5.12,15.85l1.54-2.28"/><path class="cls-6" d="M66.79,20.07a20.1,20.1,0,0,0,1.48,16.49l2-3.15"/><path class="cls-6" d="M66,19.7s-4.88,5.55-1.24,15.1c2.1-3.1,1.62-2.48,1.62-2.48"/><path class="cls-6" d="M63.29,18.49s-9.89,4-19.84,1.16L59,2.29A44.48,44.48,0,0,0,75.83.77l4.34,2.11"/><path class="cls-6" d="M64.09,18.9a29.45,29.45,0,0,1-18.64,3.94l1.6-2.17"/><path class="cls-6" d="M65.15,19.24s-6,6.2-17.39,7l2-3.06"/><path class="cls-6" d="M65.9,19.64S62.71,26,51.27,28c2.09-3.1,1.69-2.44,1.69-2.44"/></g></g><g class="cls-1"><g id="book-7" data-name="book"><polyline class="cls-5" points="41.78 226.62 41.8 226.63 41.95 226.71 42.15 226.81"/><line class="cls-5" x1="47.52" y1="229.5" x2="47.37" y2="229.43"/><line class="cls-5" x1="41.5" y1="227.04" x2="52.84" y2="211.85"/><polyline class="cls-5" points="47.69 229.59 47.67 229.58 47.52 229.5 47.37 229.43"/><line class="cls-5" x1="42.15" y1="226.81" x2="41.95" y2="226.71"/><line class="cls-5" x1="47.41" y1="230" x2="57.15" y2="214.01"/><path class="cls-5" d="M55.84,244.93l9.84-20.23a31.55,31.55,0,0,1-6.74-13.33l-.06,0-2.15-1.11h0l-2.06-1-.06,0a44.37,44.37,0,0,1-16.79,1.53L22.21,228.07a27.35,27.35,0,0,0,4.93.88l-1.33.14-1.61,2.17a31.2,31.2,0,0,0,5.24.15l-.89.23-2,3.06a33.6,33.6,0,0,0,5.73-.94l-.54.24s.41-.65-1.69,2.45c11.44-2,14.63-8.39,14.63-8.39l.11.06s-4.88,5.55-1.24,15.1c2.1-3.1,1.63-2.48,1.63-2.48l0-.55A22.13,22.13,0,0,0,47,245l2-3.15L48.8,241a21.64,21.64,0,0,0,2.84,4l1.54-2.28-.33-.66A21.51,21.51,0,0,0,55.84,244.93ZM43.91,227.66l0,0h0Zm1.64.86h0v0Z"/><path class="cls-5" d="M56.7,210.22l-2-1.05,0,0Z"/><path class="cls-5" d="M45.55,228.52v0Z"/><path class="cls-5" d="M58.92,211.3l-2.19-1.07,2.15,1.11Z"/><path class="cls-5" d="M43.91,227.66h0Z"/></g><g id="book-8" data-name="book"><line class="cls-6" x1="47.49" y1="229.55" x2="41.75" y2="226.67"/><polygon class="cls-7" points="41.07 226.78 52.81 211.9 41.87 227.38 41.07 226.78"/><line class="cls-6" x1="41.92" y1="226.76" x2="47.66" y2="229.63"/><polygon class="cls-7" points="46.95 229.79 57.12 214.06 47.81 230.31 46.95 229.79"/><path class="cls-6" d="M47.3,229.61A23.81,23.81,0,0,0,55.82,245l9.83-20.23a31.47,31.47,0,0,1-6.74-13.33l-4.28-2.2"/><path class="cls-6" d="M46.49,229.2a19.89,19.89,0,0,0,5.12,15.85l1.54-2.27"/><path class="cls-6" d="M45.51,228.53A20.14,20.14,0,0,0,47,245l2-3.15"/><path class="cls-6" d="M44.73,228.17s-4.88,5.55-1.24,15.09c2.1-3.1,1.63-2.48,1.63-2.48"/><path class="cls-6" d="M42,227s-9.88,3.95-19.83,1.15l15.58-17.35a44.62,44.62,0,0,0,16.79-1.53l4.34,2.11"/><path class="cls-6" d="M42.82,227.36a29.47,29.47,0,0,1-18.65,3.94l1.61-2.16"/><path class="cls-6" d="M43.88,227.71s-6.05,6.19-17.39,7l2-3.06"/><path class="cls-6" d="M44.62,228.11s-3.19,6.4-14.63,8.38c2.1-3.1,1.69-2.44,1.69-2.44"/></g></g><g class="cls-1"><polyline class="cls-2" points="72.59 161.43 54.17 159.15 54.43 131.4 71.56 130.64"/><path class="cls-2" d="M70.24,163.79l-21.57-8.86L54,130l18.33,5.47S72.26,151.26,70.24,163.79Z"/><path class="cls-2" d="M74.94,136.12s6.18,3.13,21.6-2.31L72.91,123.27l-18.78,4.84Z"/><path class="cls-2" d="M73,134.64s6.47,2.56,22.24-4.63l-24.68-8.35L51.25,128.6Z"/><polygon class="cls-8" points="51.08 128.96 51.16 128.98 51.17 128.91 51.08 128.96"/><polygon class="cls-2" points="45.63 155.95 66.9 163.73 72.92 134.75 93.36 124.62 70.6 119.51 51.63 128.69 51.17 128.91 51.16 128.98 45.63 155.95"/><polygon class="cls-3" points="74.06 134.6 60.84 130.2 74.34 133.64 74.06 134.6"/><polygon class="cls-3" points="72.57 136.93 59.35 132.53 72.85 135.97 72.57 136.93"/><polygon class="cls-8" points="73.02 134.21 72.35 135.9 71.5 134.76 73.02 134.21"/></g><g class="cls-4"><g id="book-9" data-name="book"><polyline class="cls-5" points="97.87 281.71 97.88 281.69 98 281.57 98.16 281.41"/><line class="cls-5" x1="102.3" y1="277.07" x2="102.19" y2="277.18"/><line class="cls-5" x1="98.18" y1="282.1" x2="86.99" y2="266.8"/><polyline class="cls-5" points="102.43 276.93 102.42 276.94 102.3 277.06 102.19 277.18"/><line class="cls-5" x1="98.16" y1="281.41" x2="98" y2="281.57"/><line class="cls-5" x1="102.75" y1="277.31" x2="90.31" y2="263.32"/><path class="cls-5" d="M119.49,273.62,103,258.29a31.37,31.37,0,0,1-14.72,2.54l0,.05c-.7.72-1.25,1.29-1.69,1.73l0,0L85,264.31l0,.05a44.63,44.63,0,0,1-3.46,16.5l12,20a26.45,26.45,0,0,0,2.29-4.45l-.25,1.31,1.6,2.17a29.86,29.86,0,0,0,1.67-5l0,.92,2.33,2.84a32.23,32.23,0,0,0,.79-5.76l.07.59s-.51-.58,1.85,2.33c1.45-11.52-3.74-16.44-3.74-16.44l.09-.09s3.88,6.29,14.08,5.61c-2.36-2.92-1.9-2.28-1.9-2.28l-.53-.15a22.26,22.26,0,0,0,5.13-.41l-2.43-2.84-.88,0a21.92,21.92,0,0,0,4.7-1.53l-1.73-2.14-.73.12A21.11,21.11,0,0,0,119.49,273.62Zm-20,6.36,0,0,0,0Zm1.3-1.32h0l0,0Z"/><path class="cls-5" d="M86.55,262.64,85,264.28l0,0Z"/><path class="cls-5" d="M100.78,278.66h0l0,0Z"/><path class="cls-5" d="M88.24,260.83l-1.67,1.78c.44-.44,1-1,1.69-1.73Z"/><path class="cls-5" d="M99.48,280v0l0,0Z"/></g><g id="book-10" data-name="book"><line class="cls-6" x1="102.34" y1="277.11" x2="97.9" y2="281.75"/><polygon class="cls-7" points="97.81 282.44 87.02 266.84 98.62 281.85 97.81 282.44"/><line class="cls-6" x1="98.03" y1="281.61" x2="102.47" y2="276.97"/><polygon class="cls-7" points="102.41 277.69 90.34 263.36 103.16 277.02 102.41 277.69"/><path class="cls-6" d="M102.34,277.31a23.84,23.84,0,0,0,17.19-3.64l-16.47-15.34a31.45,31.45,0,0,1-14.72,2.55L85,264.32"/><path class="cls-6" d="M101.71,278a19.92,19.92,0,0,0,16.66-.25l-1.73-2.14"/><path class="cls-6" d="M100.78,278.7a20.14,20.14,0,0,0,16.2,3.42l-2.42-2.84"/><path class="cls-6" d="M100.21,279.34s3.87,6.29,14.07,5.61c-2.35-2.92-1.9-2.28-1.9-2.28"/><path class="cls-6" d="M98.26,281.58s.88,10.61-4.71,19.31l-12-20A44.55,44.55,0,0,0,85,264.4l3.29-3.53"/><path class="cls-6" d="M98.88,280.93a29.47,29.47,0,0,1-1.7,19l-1.6-2.17"/><path class="cls-6" d="M99.52,280s4.15,7.59,1.63,18.69l-2.33-2.84"/><path class="cls-6" d="M100.12,279.43s5.18,4.92,3.73,16.44c-2.35-2.91-1.84-2.33-1.84-2.33"/></g></g></g></g></svg>